<?xml version="1.0" standalone="no"?>
<!DOCTYPE svg PUBLIC "-//W3C//DTD SVG 20010904//EN"
 "http://www.w3.org/TR/2001/REC-SVG-20010904/DTD/svg10.dtd">
<svg version="1.0" xmlns="http://www.w3.org/2000/svg"
 width="150.000000pt" height="150.000000pt" viewBox="0 0 150.000000 150.000000"
 preserveAspectRatio="xMidYMid meet">

<g transform="translate(0.000000,150.000000) scale(0.100000,-0.100000)"
fill="#000000" stroke="none">
<path d="M1070 1133 c-50 -33 -90 -77 -90 -99 0 -28 55 -81 92 -90 16 -3 28
-10 28 -15 0 -6 -65 -41 -144 -79 -95 -46 -156 -82 -180 -107 -20 -21 -36 -33
-37 -28 -6 79 -57 156 -140 212 -51 34 -167 56 -232 44 -29 -5 -65 -15 -82
-21 -33 -13 -95 -68 -95 -85 0 -35 194 -235 227 -235 7 0 13 -4 13 -8 0 -16
166 -91 248 -113 l82 -22 52 28 c29 16 67 39 84 52 17 13 34 23 38 23 14 0
153 117 220 185 155 159 154 270 -6 351 -56 29 -48 28 -78 7z"/>
</g>
</svg>
