<?xml version="1.0" standalone="no"?>
<!DOCTYPE svg PUBLIC "-//W3C//DTD SVG 20010904//EN"
 "http://www.w3.org/TR/2001/REC-SVG-20010904/DTD/svg10.dtd">
<svg version="1.0" xmlns="http://www.w3.org/2000/svg"
 width="140.000000pt" height="50.000000pt" viewBox="0 0 140.000000 50.000000"
 preserveAspectRatio="xMidYMid meet">

<g transform="translate(0.000000,50.000000) scale(0.100000,-0.100000)"
fill="#000000" stroke="none">
<path d="M0 250 l0 -250 700 0 700 0 0 250 0 250 -700 0 -700 0 0 -250z m164
141 c3 -5 -1 -28 -9 -51 -8 -24 -13 -45 -11 -47 2 -2 19 14 37 36 20 25 41 41
54 41 32 0 35 -8 19 -52 -20 -56 -19 -57 25 -14 25 25 45 37 55 33 20 -8 20
-25 1 -70 -21 -52 -19 -59 17 -55 26 2 33 9 43 38 9 27 18 36 40 38 25 3 27 1
21 -21 -3 -14 -9 -32 -12 -41 -4 -10 -1 -16 8 -16 8 0 22 18 31 40 13 33 20
40 42 40 21 0 26 -4 21 -16 -20 -53 -19 -64 9 -64 37 0 27 -24 -12 -28 -23 -2
-34 -11 -46 -37 -17 -35 -52 -53 -83 -41 -12 5 -15 16 -12 41 2 19 -1 36 -7
38 -5 2 -39 2 -74 -1 l-64 -5 5 29 c3 16 9 38 13 48 5 11 -11 -2 -35 -27 -41
-46 -80 -61 -80 -33 0 7 7 33 15 57 l15 44 -51 -57 c-35 -40 -58 -58 -75 -58
l-23 0 29 84 c17 47 30 87 30 90 0 3 -18 6 -40 6 -38 0 -40 2 -30 20 9 17 21
20 70 20 32 0 61 -4 64 -9z m674 -3 c17 -17 15 -46 -5 -56 -23 -12 -63 3 -63
23 0 42 -84 -16 -95 -66 -17 -74 66 -110 90 -39 9 27 18 36 38 38 32 4 34 -7
12 -69 -19 -52 -42 -79 -67 -79 -14 0 -18 5 -13 19 5 15 -1 19 -37 25 -158 25
-86 215 83 216 25 0 50 -5 57 -12z m108 -122 c-3 -13 -9 -31 -12 -40 -4 -10
-1 -16 8 -16 8 0 22 18 31 40 13 33 20 40 42 40 21 0 26 -4 21 -16 -20 -52
-18 -61 13 -66 28 -4 32 -1 44 36 11 33 19 42 42 44 25 3 27 2 21 -24 l-7 -27
31 27 c39 32 70 34 70 5 l0 -20 29 20 c16 12 37 21 46 21 15 0 17 -6 11 -40
-6 -38 -5 -40 20 -40 16 0 24 -5 22 -12 -3 -8 -23 -13 -54 -13 -43 0 -49 3
-52 23 l-3 23 -30 -26 c-17 -14 -40 -25 -51 -25 -17 0 -19 4 -13 27 l6 26 -36
-27 c-19 -15 -45 -27 -58 -26 -68 6 -83 1 -100 -35 -17 -35 -52 -53 -83 -41
-12 5 -15 16 -12 41 3 23 -1 36 -10 40 -14 5 -12 27 8 80 7 18 17 25 36 25 23
0 25 -3 20 -24z"/>
</g>
</svg>
